<?xml version="1.0" encoding="UTF-8"?> <!-- Generator: Adobe Illustrator 24.1.2, SVG Export Plug-In . SVG Version: 6.00 Build 0) --> <svg xmlns="http://www.w3.org/2000/svg" xmlns:xlink="http://www.w3.org/1999/xlink" id="Layer_1" x="0px" y="0px" viewBox="0 0 648.87 158.87" style="enable-background:new 0 0 648.87 158.87;" xml:space="preserve"> <style type="text/css"> .st0{fill:#1D1D1B;} </style> <g> <g> <g> <path class="st0" d="M359.09,64.14l-1.03,3.75h-3.41l4.46-14.6h4.32l4.55,14.6h-3.56l-1.12-3.75H359.09z M362.8,61.68l-0.91-3.1 c-0.25-0.86-0.51-1.96-0.73-2.81h-0.05c-0.21,0.86-0.43,1.97-0.67,2.82l-0.87,3.1H362.8z"></path> <path class="st0" d="M378.51,53.29v8.4c0,2.52,0.97,3.81,2.65,3.81c1.73,0,2.69-1.22,2.69-3.81v-8.4h3.3v8.2 c0,4.51-2.28,6.65-6.1,6.65c-3.69,0-5.84-2.04-5.84-6.69v-8.16H378.51z"></path> <path class="st0" d="M396.07,53.29h8.92v2.7h-5.62v3.35h5.25v2.68h-5.25v5.87h-3.3V53.29z"></path> <path class="st0" d="M413.66,64.49c0.87,0.47,2.25,0.92,3.66,0.92c1.52,0,2.32-0.63,2.32-1.59c0-0.9-0.7-1.42-2.45-2.04 c-2.44-0.86-4.03-2.19-4.03-4.33c0-2.49,2.09-4.38,5.52-4.38c1.67,0,2.87,0.33,3.73,0.73l-0.73,2.65 c-0.58-0.28-1.63-0.69-3.05-0.69c-1.44,0-2.12,0.67-2.12,1.41c0,0.93,0.81,1.34,2.7,2.05c2.59,0.97,3.78,2.31,3.78,4.37 c0,2.44-1.87,4.53-5.89,4.53c-1.66,0-3.31-0.45-4.13-0.91L413.66,64.49z"></path> <path class="st0" d="M431.32,53.48c1.02-0.17,2.45-0.31,4.46-0.31c2.03,0,3.49,0.39,4.47,1.18c0.94,0.73,1.55,1.94,1.55,3.38 c0,1.43-0.46,2.65-1.33,3.46c-1.13,1.06-2.81,1.55-4.74,1.55c-0.44,0-0.83-0.03-1.13-0.07v5.23h-3.27V53.48z M434.59,60.11 c0.27,0.06,0.61,0.09,1.1,0.09c1.75,0,2.84-0.89,2.84-2.37c0-1.34-0.92-2.14-2.58-2.14c-0.65,0-1.11,0.05-1.35,0.11V60.11z"></path> <path class="st0" d="M458.65,61.72h-5.37v3.47h6.01v2.71h-9.31v-14.6h9v2.7h-5.69v3.04h5.37V61.72z"></path> <path class="st0" d="M467.61,53.49c1.06-0.18,2.63-0.31,4.39-0.31c2.17,0,3.68,0.33,4.73,1.16c0.87,0.69,1.35,1.72,1.35,3.06 c0,1.85-1.32,3.14-2.58,3.59v0.07c1.01,0.41,1.58,1.38,1.95,2.72c0.45,1.65,0.89,3.56,1.18,4.12h-3.38c-0.22-0.42-0.59-1.6-1-3.4 c-0.41-1.83-1.02-2.31-2.38-2.33h-0.98v5.73h-3.27V53.49z M470.88,59.77h1.29c1.64,0,2.62-0.83,2.62-2.1 c0-1.34-0.92-2.02-2.42-2.03c-0.79,0-1.25,0.05-1.49,0.11V59.77z"></path> <path class="st0" d="M486.52,53.49c1.06-0.18,2.63-0.31,4.39-0.31c2.17,0,3.68,0.33,4.73,1.16c0.87,0.69,1.35,1.72,1.35,3.06 c0,1.85-1.32,3.14-2.58,3.59v0.07c1.01,0.41,1.58,1.38,1.95,2.72c0.45,1.65,0.89,3.56,1.18,4.12h-3.38c-0.22-0.42-0.59-1.6-1-3.4 c-0.41-1.83-1.02-2.31-2.38-2.33h-0.98v5.73h-3.27V53.49z M489.79,59.77h1.29c1.64,0,2.62-0.83,2.62-2.1 c0-1.34-0.92-2.02-2.42-2.03c-0.79,0-1.25,0.05-1.49,0.11V59.77z"></path> <path class="st0" d="M505.43,53.49c1.22-0.2,2.8-0.31,4.45-0.31c2.77,0,4.58,0.51,5.98,1.57c1.52,1.13,2.47,2.91,2.47,5.5 c0,2.8-1.01,4.73-2.42,5.92c-1.54,1.28-3.89,1.89-6.74,1.89c-1.72,0-2.94-0.1-3.75-0.22V53.49z M508.73,65.41 c0.29,0.05,0.75,0.06,1.15,0.06c2.99,0.03,4.96-1.63,4.96-5.12c0.01-3.03-1.77-4.63-4.61-4.63c-0.72,0-1.21,0.06-1.5,0.13V65.41z "></path> <path class="st0" d="M529.88,53.29v14.6h-3.3v-14.6H529.88z"></path> <path class="st0" d="M547.5,61.72h-5.37v3.47h6.01v2.71h-9.31v-14.6h9v2.7h-5.69v3.04h5.37V61.72z"></path> <path class="st0" d="M556.46,67.89v-14.6h3.85l3.03,5.36c0.87,1.53,1.73,3.36,2.39,5.01l0.06-0.01c-0.2-1.93-0.27-3.89-0.27-6.1 v-4.26h3.03v14.6h-3.46l-3.13-5.62c-0.87-1.58-1.83-3.45-2.54-5.16l-0.07,0.01c0.1,1.93,0.14,4,0.14,6.39v4.39H556.46z"></path> <path class="st0" d="M577.58,64.49c0.87,0.47,2.25,0.92,3.66,0.92c1.52,0,2.32-0.63,2.32-1.59c0-0.9-0.7-1.42-2.45-2.04 c-2.44-0.86-4.03-2.19-4.03-4.33c0-2.49,2.09-4.38,5.52-4.38c1.67,0,2.87,0.33,3.73,0.73l-0.73,2.65 c-0.58-0.28-1.63-0.69-3.05-0.69c-1.44,0-2.12,0.67-2.12,1.41c0,0.93,0.81,1.34,2.7,2.05c2.59,0.97,3.78,2.31,3.78,4.37 c0,2.44-1.87,4.53-5.89,4.53c-1.66,0-3.31-0.45-4.13-0.91L577.58,64.49z"></path> <path class="st0" d="M598.06,56.06h-3.94v-2.77h11.24v2.77h-4v11.83h-3.3V56.06z"></path> </g> </g> <g> <g> <path class="st0" d="M355.81,88.94c0.87,0.47,2.25,0.92,3.66,0.92c1.52,0,2.32-0.63,2.32-1.59c0-0.9-0.7-1.42-2.45-2.04 c-2.44-0.86-4.03-2.19-4.03-4.33c0-2.49,2.09-4.38,5.52-4.38c1.67,0,2.87,0.33,3.73,0.73l-0.73,2.65 c-0.58-0.28-1.63-0.69-3.05-0.69c-1.44,0-2.12,0.67-2.12,1.41c0,0.93,0.81,1.34,2.7,2.05c2.59,0.97,3.78,2.31,3.78,4.37 c0,2.44-1.87,4.53-5.89,4.53c-1.66,0-3.31-0.45-4.13-0.91L355.81,88.94z"></path> <path class="st0" d="M384.18,91.94c-0.59,0.29-1.97,0.63-3.73,0.63c-5.06,0-7.66-3.16-7.66-7.32c0-4.98,3.57-7.74,7.98-7.74 c1.72,0,3.02,0.33,3.59,0.65l-0.67,2.61c-0.66-0.29-1.59-0.55-2.77-0.55c-2.6,0-4.65,1.59-4.65,4.83c0,2.93,1.73,4.77,4.67,4.77 c1.01,0,2.11-0.2,2.76-0.47L384.18,91.94z"></path> <path class="st0" d="M395.73,77.74v5.62h5.44v-5.62h3.3v14.6h-3.3v-6.11h-5.44v6.11h-3.3v-14.6H395.73z"></path> <path class="st0" d="M413.42,77.74h3.3v11.84h5.81v2.77h-9.11V77.74z"></path> <path class="st0" d="M433.17,77.74v8.4c0,2.52,0.97,3.81,2.65,3.81c1.73,0,2.69-1.22,2.69-3.81v-8.4h3.3v8.2 c0,4.51-2.28,6.65-6.1,6.65c-3.69,0-5.84-2.04-5.84-6.69v-8.16H433.17z M432.24,75.42c0-0.84,0.66-1.49,1.5-1.49 c0.8,0,1.42,0.64,1.42,1.49c0,0.8-0.62,1.48-1.43,1.48C432.88,76.9,432.24,76.22,432.24,75.42z M436.75,75.42 c0-0.84,0.63-1.49,1.48-1.49c0.83,0,1.45,0.64,1.45,1.49c0,0.8-0.62,1.48-1.45,1.48C437.36,76.9,436.75,76.22,436.75,75.42z"></path> <path class="st0" d="M450.84,88.94c0.87,0.47,2.25,0.92,3.66,0.92c1.52,0,2.32-0.63,2.32-1.59c0-0.9-0.7-1.42-2.45-2.04 c-2.44-0.86-4.03-2.19-4.03-4.33c0-2.49,2.09-4.38,5.52-4.38c1.67,0,2.87,0.33,3.73,0.73l-0.73,2.65 c-0.58-0.28-1.63-0.69-3.05-0.69c-1.44,0-2.12,0.67-2.12,1.41c0,0.93,0.81,1.34,2.7,2.05c2.59,0.97,3.78,2.31,3.78,4.37 c0,2.44-1.87,4.53-5.89,4.53c-1.66,0-3.31-0.45-4.13-0.91L450.84,88.94z"></path> <path class="st0" d="M468.6,88.94c0.87,0.47,2.25,0.92,3.66,0.92c1.52,0,2.32-0.63,2.32-1.59c0-0.9-0.7-1.42-2.45-2.04 c-2.44-0.86-4.03-2.19-4.03-4.33c0-2.49,2.09-4.38,5.52-4.38c1.67,0,2.87,0.33,3.73,0.73l-0.73,2.65 c-0.58-0.28-1.63-0.69-3.05-0.69c-1.44,0-2.12,0.67-2.12,1.41c0,0.93,0.81,1.34,2.7,2.05c2.59,0.97,3.78,2.31,3.78,4.37 c0,2.44-1.87,4.53-5.89,4.53c-1.66,0-3.31-0.45-4.13-0.91L468.6,88.94z"></path> <path class="st0" d="M494.94,86.17h-5.37v3.47h6.01v2.71h-9.31v-14.6h9v2.7h-5.69v3.04h5.37V86.17z"></path> <path class="st0" d="M503.9,77.74h3.3v11.84h5.81v2.77h-9.11V77.74z"></path> <path class="st0" d="M521.03,77.94c1.22-0.2,2.8-0.31,4.45-0.31c2.77,0,4.58,0.51,5.98,1.57c1.52,1.13,2.47,2.91,2.47,5.5 c0,2.8-1.01,4.73-2.42,5.92c-1.54,1.28-3.89,1.89-6.74,1.89c-1.72,0-2.94-0.1-3.75-0.22V77.94z M524.33,89.86 c0.29,0.05,0.75,0.06,1.15,0.06c2.99,0.03,4.96-1.63,4.96-5.12c0.01-3.03-1.77-4.63-4.61-4.63c-0.72,0-1.21,0.06-1.5,0.13V89.86z "></path> <path class="st0" d="M545.48,77.74v14.6h-3.3v-14.6H545.48z"></path> <path class="st0" d="M563.09,86.17h-5.37v3.47h6.01v2.71h-9.31v-14.6h9v2.7h-5.69v3.04h5.37V86.17z"></path> <path class="st0" d="M572.05,92.35v-14.6h3.85l3.03,5.36c0.87,1.53,1.73,3.36,2.39,5.01l0.06-0.01c-0.2-1.93-0.27-3.89-0.27-6.1 v-4.26h3.03v14.6h-3.46l-3.13-5.62c-0.87-1.58-1.83-3.45-2.54-5.16l-0.07,0.01c0.1,1.93,0.14,4,0.14,6.39v4.39H572.05z"></path> <path class="st0" d="M593.18,88.94c0.87,0.47,2.25,0.92,3.66,0.92c1.52,0,2.32-0.63,2.32-1.59c0-0.9-0.7-1.42-2.45-2.04 c-2.44-0.86-4.03-2.19-4.03-4.33c0-2.49,2.09-4.38,5.52-4.38c1.67,0,2.87,0.33,3.73,0.73l-0.73,2.65 c-0.58-0.28-1.63-0.69-3.05-0.69c-1.44,0-2.12,0.67-2.12,1.41c0,0.93,0.81,1.34,2.7,2.05c2.59,0.97,3.78,2.31,3.78,4.37 c0,2.44-1.87,4.53-5.89,4.53c-1.66,0-3.31-0.45-4.13-0.91L593.18,88.94z"></path> <path class="st0" d="M613.66,80.51h-3.94v-2.77h11.24v2.77h-4v11.83h-3.3V80.51z"></path> </g> </g> <g> <g> <path class="st0" d="M359.01,101.92v14.6h-3.3v-14.6H359.01z"></path> <path class="st0" d="M367.95,116.52v-14.6h3.85l3.03,5.36c0.87,1.53,1.73,3.36,2.39,5.01l0.06-0.01c-0.2-1.93-0.27-3.89-0.27-6.1 v-4.26h3.03v14.6h-3.46l-3.13-5.62c-0.87-1.58-1.83-3.45-2.54-5.16l-0.07,0.01c0.1,1.93,0.14,4,0.14,6.39v4.39H367.95z"></path> <path class="st0" d="M400.95,116.52l-3.46-14.6h3.54l1.11,6.01c0.31,1.74,0.62,3.63,0.85,5.11h0.05 c0.23-1.59,0.58-3.33,0.95-5.15l1.25-5.97h3.51l1.17,6.16c0.31,1.7,0.56,3.26,0.77,4.88h0.04c0.23-1.63,0.54-3.32,0.86-5.07 l1.18-5.97h3.36l-3.77,14.6h-3.57l-1.24-6.29c-0.29-1.46-0.52-2.84-0.7-4.49h-0.04c-0.25,1.64-0.48,3.03-0.83,4.5l-1.4,6.28 H400.95z"></path> <path class="st0" d="M427.21,101.92v14.6h-3.3v-14.6H427.21z"></path> <path class="st0" d="M444.82,110.34h-5.37v3.47h6.01v2.71h-9.31v-14.6h9v2.7h-5.69v3.04h5.37V110.34z"></path> <path class="st0" d="M453.78,116.52v-14.6h3.85l3.03,5.36c0.87,1.53,1.73,3.36,2.39,5.01l0.06-0.01c-0.2-1.93-0.27-3.89-0.27-6.1 v-4.26h3.03v14.6h-3.46l-3.13-5.62c-0.87-1.58-1.83-3.45-2.54-5.16l-0.07,0.01c0.1,1.93,0.14,4,0.14,6.39v4.39H453.78z"></path> <path class="st0" d="M484.72,116.52v-1.99l1.81-1.64c3.08-2.77,4.58-4.34,4.61-5.99c0-1.14-0.67-2.05-2.31-2.05 c-1.21,0-2.27,0.61-3.01,1.16l-0.92-2.35c1.05-0.8,2.71-1.45,4.6-1.45c3.2,0,4.94,1.87,4.94,4.41c0,2.36-1.69,4.26-3.74,6.07 l-1.3,1.08v0.04h5.33v2.71H484.72z"></path> <path class="st0" d="M508.64,116.52v-3.37h-6.24v-2.14l5.32-8.58h4.03v8.25h1.68v2.46h-1.68v3.37H508.64z M508.64,110.69v-3.11 c0-0.85,0.05-1.72,0.09-2.63l-0.08,0c-0.45,0.92-0.83,1.73-1.31,2.61l-1.88,3.08l-0.01,0.04H508.64z"></path> <path class="st0" d="M520.34,117.39l4.64-15.71h2.19l-4.65,15.71H520.34z"></path> <path class="st0" d="M544.24,102.43v2.07l-5.8,12.01h-3.5l5.8-11.33v-0.04h-6.46v-2.71H544.24z"></path> </g> </g> <g> <g> <path class="st0" d="M112.13,98.99c-0.39,0-0.79-0.07-1.18-0.21c-1.81-0.65-2.75-2.65-2.09-4.46l15.08-41.72 c0.65-1.81,2.65-2.75,4.46-2.09c1.81,0.65,2.75,2.65,2.09,4.46l-15.08,41.72C114.9,98.11,113.56,98.99,112.13,98.99z"></path> </g> <g> <path class="st0" d="M179.4,99.54c-0.39,0-0.79-0.07-1.18-0.21c-1.81-0.65-2.75-2.65-2.1-4.46l26.62-74.04 c0.65-1.81,2.65-2.75,4.46-2.1c1.81,0.65,2.75,2.65,2.1,4.46l-26.62,74.04C182.17,98.65,180.83,99.54,179.4,99.54z"></path> </g> <g> <path class="st0" d="M131.84,44.38c-0.38,0-0.78-0.06-1.16-0.2c-1.81-0.64-2.77-2.63-2.13-4.44l1.43-4.05 c0.64-1.81,2.63-2.77,4.44-2.13c1.81,0.64,2.77,2.63,2.13,4.44l-1.43,4.05C134.62,43.49,133.27,44.38,131.84,44.38z"></path> </g> <g> <path class="st0" d="M172.46,58.01h-23.5c-1.92,0-3.48-1.56-3.48-3.48s1.56-3.48,3.48-3.48h20.97l0.53-1.62 c0.59-1.83,2.56-2.83,4.39-2.24c1.83,0.59,2.83,2.56,2.24,4.39l-1.31,4.03C175.31,57.04,173.97,58.01,172.46,58.01z"></path> </g> <g> <path class="st0" d="M157.38,99.54c-0.39,0-0.79-0.07-1.18-0.21c-1.81-0.65-2.75-2.65-2.1-4.46l5.5-15.3l-18.34,0.04 c0,0,0,0-0.01,0c-1.92,0-3.48-1.55-3.48-3.48c0-1.92,1.55-3.49,3.48-3.49l23.3-0.05c0,0,0,0,0.01,0c1.13,0,2.19,0.55,2.85,1.48 c0.65,0.93,0.81,2.12,0.43,3.18l-7.18,19.97C160.15,98.65,158.81,99.54,157.38,99.54z"></path> </g> <g> <path class="st0" d="M212.73,40.54H188.2c-1.92,0-3.48-1.56-3.48-3.48s1.56-3.48,3.48-3.48h24.53c1.92,0,3.48,1.56,3.48,3.48 S214.65,40.54,212.73,40.54z"></path> </g> <g> <path class="st0" d="M247.44,99.54c-0.39,0-0.79-0.07-1.18-0.21c-1.81-0.65-2.75-2.65-2.09-4.46l14.97-41.5 c0.5-1.38,1.81-2.3,3.28-2.3h19.58l1.37-3.76c0.66-1.81,2.65-2.74,4.46-2.08c1.81,0.66,2.74,2.66,2.08,4.46l-2.2,6.06 c-0.5,1.38-1.81,2.29-3.27,2.29h-19.57l-14.14,39.2C250.2,98.66,248.86,99.54,247.44,99.54z"></path> </g> <g> <path class="st0" d="M225.53,99.54h-24c-1.13,0-2.2-0.55-2.85-1.48c-0.65-0.93-0.81-2.11-0.43-3.18l14.97-41.61 c0.5-1.39,1.78-2.33,3.29-2.3l23.89,0.11c1.13,0.01,2.19,0.56,2.84,1.48s0.81,2.11,0.43,3.17l-14.86,41.5 C228.31,98.61,227,99.54,225.53,99.54z M206.48,92.57h16.59l12.38-34.56l-16.51-0.08L206.48,92.57z"></path> </g> <g> <path class="st0" d="M134.26,98.9c-0.39,0-0.79-0.07-1.18-0.21c-1.81-0.65-2.75-2.65-2.1-4.46l26.43-73.46 c0.65-1.81,2.65-2.75,4.46-2.1c1.81,0.65,2.75,2.65,2.1,4.46L137.53,96.6C137.02,98.02,135.68,98.9,134.26,98.9z"></path> </g> <g> <path class="st0" d="M282.54,118.71C282.54,118.71,282.54,118.71,282.54,118.71l-177.45-0.02c-1.92,0-3.48-1.56-3.48-3.48 c0-1.92,1.56-3.48,3.48-3.48c0,0,0,0,0,0l174.98,0.02l4.29-12.29l-14.88,0.08c-0.01,0-0.01,0-0.02,0c-1.13,0-2.19-0.55-2.84-1.47 c-0.66-0.93-0.82-2.12-0.44-3.19l6.17-17.24c0.5-1.39,1.81-2.31,3.28-2.31h12.07c1.92,0,3.48,1.56,3.48,3.48 s-1.56,3.48-3.48,3.48h-9.61l-3.66,10.25l14.84-0.08c0.01,0,0.01,0,0.02,0c1.12,0,2.18,0.54,2.83,1.46 c0.66,0.92,0.83,2.1,0.45,3.17l-6.73,19.28C285.34,117.77,284.02,118.71,282.54,118.71z"></path> </g> <g> <g> <path class="st0" d="M80.18,141.15c-8.65,0-16.78-1.64-24.16-4.86C29.21,123.9,16.19,95.37,24.29,66.86 C28.46,52.19,38.15,41.4,45.83,36.2c0.86-0.58,1.94-0.75,2.94-0.46c1,0.3,1.81,1.02,2.22,1.98l29.78,70.37l25.09-69.39 c-12.17-6.69-23.58-8.29-37.61-5.4c-1.88,0.39-3.73-0.82-4.11-2.71c-0.39-1.88,0.82-3.73,2.71-4.11 c16.84-3.47,30.32-1.18,45.07,7.68c1.43,0.86,2.05,2.6,1.48,4.17l-29.1,80.49c-0.49,1.35-1.75,2.26-3.18,2.3 c-1.43,0.04-2.74-0.8-3.3-2.12L46.34,44.6c-5.77,5.02-12.31,13.46-15.35,24.17c-7.14,25.13,4.33,50.28,27.89,61.17 c6.43,2.81,13.62,4.25,21.3,4.25c16.54,0,31.57-7.61,41.22-20.89c1.13-1.56,3.31-1.9,4.87-0.77c1.56,1.13,1.9,3.31,0.77,4.87 C116.06,132.49,98.98,141.15,80.18,141.15z"></path> </g> </g> </g> </g> </svg> 