<?xml version="1.0" encoding="UTF-8"?> <!-- Generator: Adobe Illustrator 25.0.1, SVG Export Plug-In . SVG Version: 6.00 Build 0) --> <svg xmlns="http://www.w3.org/2000/svg" xmlns:xlink="http://www.w3.org/1999/xlink" id="Layer_1" x="0px" y="0px" viewBox="0 0 605.4 122.7" style="enable-background:new 0 0 605.4 122.7;" xml:space="preserve"> <style type="text/css"> .st0{fill:none;stroke:#000000;stroke-width:6.9659;stroke-linecap:round;stroke-linejoin:round;stroke-miterlimit:10;} </style> <g> <g> <g> <g> <path d="M337.2,45.7l-1,3.8h-3.4l4.5-14.6h4.3l4.5,14.6h-3.6l-1.1-3.8H337.2z M340.9,43.2l-0.9-3.1c-0.3-0.9-0.5-2-0.7-2.8h0 c-0.2,0.9-0.4,2-0.7,2.8l-0.9,3.1H340.9z"></path> <path d="M357.3,34.8v8.4c0,2.5,1,3.8,2.6,3.8c1.7,0,2.7-1.2,2.7-3.8v-8.4h3.3V43c0,4.5-2.3,6.6-6.1,6.6c-3.7,0-5.8-2-5.8-6.7 v-8.2H357.3z"></path> <path d="M374.9,34.8h8.9v2.7h-5.6v3.3h5.3v2.7h-5.3v5.9h-3.3V34.8z"></path> <path d="M392.5,46c0.9,0.5,2.2,0.9,3.7,0.9c1.5,0,2.3-0.6,2.3-1.6c0-0.9-0.7-1.4-2.4-2c-2.4-0.9-4-2.2-4-4.3 c0-2.5,2.1-4.4,5.5-4.4c1.7,0,2.9,0.3,3.7,0.7l-0.7,2.6c-0.6-0.3-1.6-0.7-3-0.7c-1.4,0-2.1,0.7-2.1,1.4c0,0.9,0.8,1.3,2.7,2.1 c2.6,1,3.8,2.3,3.8,4.4c0,2.4-1.9,4.5-5.9,4.5c-1.7,0-3.3-0.5-4.1-0.9L392.5,46z"></path> <path d="M410.1,35c1-0.2,2.4-0.3,4.5-0.3c2,0,3.5,0.4,4.5,1.2c0.9,0.7,1.5,1.9,1.5,3.4c0,1.4-0.5,2.7-1.3,3.5 c-1.1,1.1-2.8,1.5-4.7,1.5c-0.4,0-0.8,0-1.1-0.1v5.2h-3.3V35z M413.4,41.6c0.3,0.1,0.6,0.1,1.1,0.1c1.8,0,2.8-0.9,2.8-2.4 c0-1.3-0.9-2.1-2.6-2.1c-0.7,0-1.1,0.1-1.3,0.1V41.6z"></path> <path d="M437.5,43.2h-5.4v3.5h6v2.7h-9.3V34.8h9v2.7h-5.7v3h5.4V43.2z"></path> <path d="M446.4,35c1.1-0.2,2.6-0.3,4.4-0.3c2.2,0,3.7,0.3,4.7,1.2c0.9,0.7,1.4,1.7,1.4,3.1c0,1.8-1.3,3.1-2.6,3.6v0.1 c1,0.4,1.6,1.4,2,2.7c0.5,1.7,0.9,3.6,1.2,4.1h-3.4c-0.2-0.4-0.6-1.6-1-3.4c-0.4-1.8-1-2.3-2.4-2.3h-1v5.7h-3.3V35z M449.7,41.3 h1.3c1.6,0,2.6-0.8,2.6-2.1c0-1.3-0.9-2-2.4-2c-0.8,0-1.3,0.1-1.5,0.1V41.3z"></path> <path d="M465.3,35c1.1-0.2,2.6-0.3,4.4-0.3c2.2,0,3.7,0.3,4.7,1.2c0.9,0.7,1.4,1.7,1.4,3.1c0,1.8-1.3,3.1-2.6,3.6v0.1 c1,0.4,1.6,1.4,2,2.7c0.5,1.7,0.9,3.6,1.2,4.1H473c-0.2-0.4-0.6-1.6-1-3.4c-0.4-1.8-1-2.3-2.4-2.3h-1v5.7h-3.3V35z M468.6,41.3 h1.3c1.6,0,2.6-0.8,2.6-2.1c0-1.3-0.9-2-2.4-2c-0.8,0-1.3,0.1-1.5,0.1V41.3z"></path> <path d="M484.3,35c1.2-0.2,2.8-0.3,4.5-0.3c2.8,0,4.6,0.5,6,1.6c1.5,1.1,2.5,2.9,2.5,5.5c0,2.8-1,4.7-2.4,5.9 c-1.5,1.3-3.9,1.9-6.7,1.9c-1.7,0-2.9-0.1-3.8-0.2V35z M487.6,46.9c0.3,0.1,0.7,0.1,1.2,0.1c3,0,5-1.6,5-5.1 c0-3-1.8-4.6-4.6-4.6c-0.7,0-1.2,0.1-1.5,0.1V46.9z"></path> <path d="M508.7,34.8v14.6h-3.3V34.8H508.7z"></path> <path d="M526.3,43.2h-5.4v3.5h6v2.7h-9.3V34.8h9v2.7h-5.7v3h5.4V43.2z"></path> <path d="M535.3,49.4V34.8h3.8l3,5.4c0.9,1.5,1.7,3.4,2.4,5l0.1,0c-0.2-1.9-0.3-3.9-0.3-6.1v-4.3h3v14.6h-3.5l-3.1-5.6 c-0.9-1.6-1.8-3.4-2.5-5.2l-0.1,0c0.1,1.9,0.1,4,0.1,6.4v4.4H535.3z"></path> <path d="M556.4,46c0.9,0.5,2.2,0.9,3.7,0.9c1.5,0,2.3-0.6,2.3-1.6c0-0.9-0.7-1.4-2.4-2c-2.4-0.9-4-2.2-4-4.3 c0-2.5,2.1-4.4,5.5-4.4c1.7,0,2.9,0.3,3.7,0.7l-0.7,2.6c-0.6-0.3-1.6-0.7-3-0.7c-1.4,0-2.1,0.7-2.1,1.4c0,0.9,0.8,1.3,2.7,2.1 c2.6,1,3.8,2.3,3.8,4.4c0,2.4-1.9,4.5-5.9,4.5c-1.7,0-3.3-0.5-4.1-0.9L556.4,46z"></path> <path d="M576.9,37.6h-3.9v-2.8h11.2v2.8h-4v11.8h-3.3V37.6z"></path> </g> </g> </g> <g> <g> <g> <path d="M333.9,70.5c0.9,0.5,2.2,0.9,3.7,0.9c1.5,0,2.3-0.6,2.3-1.6c0-0.9-0.7-1.4-2.4-2c-2.4-0.9-4-2.2-4-4.3 c0-2.5,2.1-4.4,5.5-4.4c1.7,0,2.9,0.3,3.7,0.7l-0.7,2.6c-0.6-0.3-1.6-0.7-3-0.7c-1.4,0-2.1,0.7-2.1,1.4c0,0.9,0.8,1.3,2.7,2.1 c2.6,1,3.8,2.3,3.8,4.4c0,2.4-1.9,4.5-5.9,4.5c-1.7,0-3.3-0.5-4.1-0.9L333.9,70.5z"></path> <path d="M362.2,73.5c-0.6,0.3-2,0.6-3.7,0.6c-5.1,0-7.7-3.2-7.7-7.3c0-5,3.6-7.7,8-7.7c1.7,0,3,0.3,3.6,0.6l-0.7,2.6 c-0.7-0.3-1.6-0.5-2.8-0.5c-2.6,0-4.6,1.6-4.6,4.8c0,2.9,1.7,4.8,4.7,4.8c1,0,2.1-0.2,2.8-0.5L362.2,73.5z"></path> <path d="M373.8,59.3v5.6h5.4v-5.6h3.3v14.6h-3.3v-6.1h-5.4v6.1h-3.3V59.3H373.8z"></path> <path d="M391.5,59.3h3.3v11.8h5.8v2.8h-9.1V59.3z"></path> <path d="M411.9,59.3v8.4c0,2.5,1,3.8,2.6,3.8c1.7,0,2.7-1.2,2.7-3.8v-8.4h3.3v8.2c0,4.5-2.3,6.6-6.1,6.6c-3.7,0-5.8-2-5.8-6.7 v-8.2H411.9z M411,56.9c0-0.8,0.7-1.5,1.5-1.5c0.8,0,1.4,0.6,1.4,1.5c0,0.8-0.6,1.5-1.4,1.5C411.6,58.4,411,57.7,411,56.9z M415.5,56.9c0-0.8,0.6-1.5,1.5-1.5c0.8,0,1.5,0.6,1.5,1.5c0,0.8-0.6,1.5-1.5,1.5C416.1,58.4,415.5,57.7,415.5,56.9z"></path> <path d="M429.6,70.5c0.9,0.5,2.2,0.9,3.7,0.9c1.5,0,2.3-0.6,2.3-1.6c0-0.9-0.7-1.4-2.4-2c-2.4-0.9-4-2.2-4-4.3 c0-2.5,2.1-4.4,5.5-4.4c1.7,0,2.9,0.3,3.7,0.7l-0.7,2.6c-0.6-0.3-1.6-0.7-3-0.7c-1.4,0-2.1,0.7-2.1,1.4c0,0.9,0.8,1.3,2.7,2.1 c2.6,1,3.8,2.3,3.8,4.4c0,2.4-1.9,4.5-5.9,4.5c-1.7,0-3.3-0.5-4.1-0.9L429.6,70.5z"></path> <path d="M447.3,70.5c0.9,0.5,2.2,0.9,3.7,0.9c1.5,0,2.3-0.6,2.3-1.6c0-0.9-0.7-1.4-2.4-2c-2.4-0.9-4-2.2-4-4.3 c0-2.5,2.1-4.4,5.5-4.4c1.7,0,2.9,0.3,3.7,0.7l-0.7,2.6c-0.6-0.3-1.6-0.7-3-0.7c-1.4,0-2.1,0.7-2.1,1.4c0,0.9,0.8,1.3,2.7,2.1 c2.6,1,3.8,2.3,3.8,4.4c0,2.4-1.9,4.5-5.9,4.5c-1.7,0-3.3-0.5-4.1-0.9L447.3,70.5z"></path> <path d="M473.7,67.7h-5.4v3.5h6v2.7H465V59.3h9V62h-5.7v3h5.4V67.7z"></path> <path d="M482.6,59.3h3.3v11.8h5.8v2.8h-9.1V59.3z"></path> <path d="M499.8,59.5c1.2-0.2,2.8-0.3,4.5-0.3c2.8,0,4.6,0.5,6,1.6c1.5,1.1,2.5,2.9,2.5,5.5c0,2.8-1,4.7-2.4,5.9 c-1.5,1.3-3.9,1.9-6.7,1.9c-1.7,0-2.9-0.1-3.8-0.2V59.5z M503.1,71.4c0.3,0.1,0.7,0.1,1.2,0.1c3,0,5-1.6,5-5.1 c0-3-1.8-4.6-4.6-4.6c-0.7,0-1.2,0.1-1.5,0.1V71.4z"></path> <path d="M524.2,59.3v14.6h-3.3V59.3H524.2z"></path> <path d="M541.8,67.7h-5.4v3.5h6v2.7h-9.3V59.3h9V62h-5.7v3h5.4V67.7z"></path> <path d="M550.8,73.9V59.3h3.8l3,5.4c0.9,1.5,1.7,3.4,2.4,5l0.1,0c-0.2-1.9-0.3-3.9-0.3-6.1v-4.3h3v14.6h-3.5l-3.1-5.6 c-0.9-1.6-1.8-3.4-2.5-5.2l-0.1,0c0.1,1.9,0.1,4,0.1,6.4v4.4H550.8z"></path> <path d="M571.9,70.5c0.9,0.5,2.2,0.9,3.7,0.9c1.5,0,2.3-0.6,2.3-1.6c0-0.9-0.7-1.4-2.4-2c-2.4-0.9-4-2.2-4-4.3 c0-2.5,2.1-4.4,5.5-4.4c1.7,0,2.9,0.3,3.7,0.7l-0.7,2.6c-0.6-0.3-1.6-0.7-3-0.7c-1.4,0-2.1,0.7-2.1,1.4c0,0.9,0.8,1.3,2.7,2.1 c2.6,1,3.8,2.3,3.8,4.4c0,2.4-1.9,4.5-5.9,4.5c-1.7,0-3.3-0.5-4.1-0.9L571.9,70.5z"></path> <path d="M592.4,62h-3.9v-2.8h11.2V62h-4v11.8h-3.3V62z"></path> </g> </g> </g> <g> <g> <g> <path d="M337.1,83.4V98h-3.3V83.4H337.1z"></path> <path d="M346,98V83.4h3.8l3,5.4c0.9,1.5,1.7,3.4,2.4,5l0.1,0c-0.2-1.9-0.3-3.9-0.3-6.1v-4.3h3V98h-3.5l-3.1-5.6 c-0.9-1.6-1.8-3.4-2.5-5.2l-0.1,0c0.1,1.9,0.1,4,0.1,6.4V98H346z"></path> <path d="M379.8,98l-3.5-14.6h3.5l1.1,6c0.3,1.7,0.6,3.6,0.8,5.1h0c0.2-1.6,0.6-3.3,1-5.1l1.3-6h3.5l1.2,6.2 c0.3,1.7,0.6,3.3,0.8,4.9h0c0.2-1.6,0.5-3.3,0.9-5.1l1.2-6h3.4L391.2,98h-3.6l-1.2-6.3c-0.3-1.5-0.5-2.8-0.7-4.5h0 c-0.2,1.6-0.5,3-0.8,4.5l-1.4,6.3H379.8z"></path> <path d="M406.1,83.4V98h-3.3V83.4H406.1z"></path> <path d="M423.7,91.9h-5.4v3.5h6V98H415V83.4h9v2.7h-5.7v3h5.4V91.9z"></path> <path d="M432.6,98V83.4h3.8l3,5.4c0.9,1.5,1.7,3.4,2.4,5l0.1,0c-0.2-1.9-0.3-3.9-0.3-6.1v-4.3h3V98h-3.5l-3.1-5.6 c-0.9-1.6-1.8-3.4-2.5-5.2l-0.1,0c0.1,1.9,0.1,4,0.1,6.4V98H432.6z"></path> <path d="M463.6,98v-2l1.8-1.6c3.1-2.8,4.6-4.3,4.6-6c0-1.1-0.7-2.1-2.3-2.1c-1.2,0-2.3,0.6-3,1.2l-0.9-2.4 c1.1-0.8,2.7-1.5,4.6-1.5c3.2,0,4.9,1.9,4.9,4.4c0,2.4-1.7,4.3-3.7,6.1l-1.3,1.1v0h5.3V98H463.6z"></path> <path d="M487.5,98v-3.4h-6.2v-2.1l5.3-8.6h4v8.3h1.7v2.5h-1.7V98H487.5z M487.5,92.2v-3.1c0-0.8,0-1.7,0.1-2.6l-0.1,0 c-0.5,0.9-0.8,1.7-1.3,2.6l-1.9,3.1l0,0H487.5z"></path> <path d="M499.2,98.9l4.6-15.7h2.2l-4.6,15.7H499.2z"></path> <path d="M523.1,84V86l-5.8,12h-3.5l5.8-11.3v0h-6.5V84H523.1z"></path> </g> </g> </g> </g> <g> <line class="st0" x1="83.2" y1="96.7" x2="260.4" y2="96.7"></line> <line class="st0" x1="105.3" y1="35.3" x2="90.2" y2="77"></line> <line class="st0" x1="194.6" y1="36" x2="179.6" y2="77.6"></line> <line class="st0" x1="218.5" y1="36.1" x2="203.6" y2="77.6"></line> <line class="st0" x1="240.5" y1="36.1" x2="225.5" y2="77.6"></line> <line class="st0" x1="184.1" y1="3.5" x2="157.5" y2="77.6"></line> <line class="st0" x1="142.6" y1="57.6" x2="135.4" y2="77.6"></line> <line class="st0" x1="109.9" y1="22.4" x2="111.3" y2="18.4"></line> <line class="st0" x1="150.4" y1="36.1" x2="151.8" y2="32"></line> <line class="st0" x1="262.5" y1="36.1" x2="264.7" y2="30"></line> <path class="st0" d="M112.5,77"></path> <line class="st0" x1="150.5" y1="36" x2="127" y2="36"></line> <line class="st0" x1="142.6" y1="57.6" x2="119" y2="57.6"></line> <line class="st0" x1="166.3" y1="18.6" x2="190.8" y2="18.6"></line> <line class="st0" x1="262.5" y1="36.1" x2="240.5" y2="36.1"></line> <line class="st0" x1="253.7" y1="60.3" x2="247.5" y2="77.6"></line> <line class="st0" x1="265.8" y1="60.3" x2="253.7" y2="60.3"></line> <line class="st0" x1="267.3" y1="77.5" x2="247.5" y2="77.6"></line> <line class="st0" x1="218.5" y1="36.1" x2="194.6" y2="36"></line> <line class="st0" x1="203.6" y1="77.6" x2="179.6" y2="77.6"></line> <line class="st0" x1="138.7" y1="3.5" x2="112.3" y2="76.9"></line> <line class="st0" x1="267.3" y1="77.5" x2="261.6" y2="93.8"></line> <g> <path class="st0" d="M25.8,20.6C19,25.2,9.7,35.3,5.7,49.3c-7.3,25.8,3.7,53.2,29.8,65.3c7.6,3.3,15.4,4.6,22.8,4.6 c18.3,0,34-8.6,44-22.3"></path> </g> <g> <path class="st0" d="M25.8,20.6l33.2,78.6l29.1-80.5C75.3,11,62.8,7.9,45.6,11.4"></path> </g> </g> </svg> 